<?xml version="1.0" encoding="UTF-8"?> <svg xmlns="http://www.w3.org/2000/svg" width="116" height="103" viewBox="0 0 116 103" fill="none"><rect width="116" height="103" fill="white"></rect><path d="M58 76.9949C44.2161 76.9949 33 65.7839 33 52C33 38.2161 44.2161 27 58 27C71.7839 27 83 38.2161 83 52C83 65.7839 71.7839 77 58 77V76.9949ZM57.9949 29.3253C46.0004 29.3253 35.3253 40.0105 35.3253 52C35.3253 63.9895 46.0055 74.6696 57.9949 74.6696C69.9844 74.6696 80.6696 63.9895 80.6696 52C80.6696 40.0105 69.9844 29.3253 57.9949 29.3253Z" fill="black"></path><path d="M66.9076 49.2741C70.5952 49.2741 73.5847 46.2847 73.5847 42.597C73.5847 38.9094 70.5952 35.9199 66.9076 35.9199C63.2199 35.9199 60.2305 38.9094 60.2305 42.597C60.2305 46.2847 63.2199 49.2741 66.9076 49.2741Z" fill="black"></path><path d="M66.9089 50.0892C62.7793 50.0892 59.418 46.7279 59.418 42.5983C59.418 38.4687 62.7793 35.1074 66.9089 35.1074C71.0385 35.1074 74.3998 38.4687 74.3998 42.5983C74.3998 46.7279 71.0385 50.0892 66.9089 50.0892ZM66.9089 36.735C63.6739 36.735 61.0455 39.3684 61.0455 42.6034C61.0455 45.8383 63.6739 48.4667 66.9089 48.4667C70.1438 48.4667 72.7722 45.8333 72.7722 42.6034C72.7722 39.3735 70.1388 36.735 66.9089 36.735Z" fill="black"></path></svg> 